<svg fill="none" height="35" viewBox="0 0 73 35" width="73" xmlns="http://www.w3.org/2000/svg"><path d="m.719532 5.30966v-2.85511h12.294068v2.85511h-4.41054v11.69034h-3.46591v-11.69034zm14.410968 11.69034v-14.54545h10.1421v2.85511h-6.6264v2.98295h6.1079v2.86219h-6.1079v2.9901h6.6264v2.8551zm12.7438 0v-14.54545h3.5156v5.83806h5.7315v-5.83806h3.5086v14.54545h-3.5086v-5.8452h-5.7315v5.8452zm27.7402-14.54545v14.54545h-2.983l-5.7883-8.39489h-.0923v8.39489h-3.5157v-14.54545h3.0256l5.7244 8.38065h.1208v-8.38065zm16.3393 7.27272c0 1.60043-.3078 2.95693-.9233 4.06963-.6156 1.1127-1.4489 1.9578-2.5 2.5355-1.0464.5776-2.2207.8665-3.5228.8665-1.3068 0-2.4834-.2912-3.5298-.8736s-1.8774-1.4276-2.4929-2.5355c-.6108-1.1127-.9162-2.4669-.9162-4.06253 0-1.60038.3054-2.95691.9162-4.0696.6155-1.11269 1.4465-1.95786 2.4929-2.53551s2.223-.86648 3.5298-.86648c1.3021 0 2.4764.28883 3.5228.86648 1.0511.57765 1.8844 1.42282 2.5 2.53551.6155 1.11269.9233 2.46922.9233 4.0696zm-3.5938 0c0-.94697-.1349-1.74716-.4048-2.40057-.2652-.65341-.6487-1.1482-1.1506-1.48437-.4971-.33618-1.0961-.50426-1.7969-.50426-.696 0-1.2949.16808-1.7968.50426-.5019.33617-.8878.83096-1.1577 1.48437-.2652.65341-.3977 1.4536-.3977 2.40057 0 .94693.1325 1.74713.3977 2.40053.2699.6534.6558 1.1482 1.1577 1.4844s1.1008.5043 1.7968.5043c.7008 0 1.2998-.1681 1.7969-.5043.5019-.3362.8854-.831 1.1506-1.4844.2699-.6534.4048-1.4536.4048-2.40053z" fill="#373737"/><path d="m13.5014 28.608 2.5909-6.3353h1.6591l-3.5284 8.7273h-1.4375l-3.44885-8.7273h1.64205zm-3.0398-6.3353v8.7273h-1.98291v-8.7273zm6.1648 8.7273v-8.7273h1.9659v8.7273zm6.5512.1761c-.5531 0-1.0512-.0984-1.4944-.2954-.4394-.2008-.7878-.4962-1.0454-.8864-.2538-.3901-.3807-.8712-.3807-1.4432 0-.4924.0909-.8996.2727-1.2216.1818-.3219.43-.5795.7443-.7727.3144-.1932.6686-.339 1.0625-.4375.3978-.1023.8088-.1761 1.233-.2216.5114-.053.9261-.1004 1.2443-.142.3182-.0455.5493-.1137.6932-.2046.1477-.0947.2216-.2405.2216-.4375v-.0341c0-.428-.1269-.7594-.3807-.9943-.2538-.2348-.6193-.3522-1.0966-.3522-.5038 0-.9034.1098-1.1988.3295-.2917.2197-.4887.4792-.591.7784l-1.9204-.2727c.1515-.5303.4015-.9735.75-1.3296.3485-.3598.7746-.6288 1.2784-.8068.5038-.1818 1.0606-.2727 1.6705-.2727.4204 0 .839.0492 1.2556.1477.4167.0985.7974.2614 1.1421.4887.3447.2234.6212.5284.8295.9147.2122.3864.3182.8693.3182 1.4489v5.8409h-1.9773v-1.1989h-.0681c-.125.2425-.3012.4697-.5285.6819-.2234.2083-.5056.3768-.8465.5056-.3372.125-.733.1875-1.1875.1875zm.534-1.5113c.4129 0 .7709-.0815 1.0739-.2443.303-.1667.536-.3864.6989-.6591.1666-.2728.25-.5701.25-.8921v-1.0284c-.0644.053-.1743.1023-.3296.1477-.1515.0455-.3219.0853-.5113.1194-.1894.034-.3769.0643-.5625.0909-.1856.0265-.3466.0492-.483.0681-.3068.0417-.5814.1099-.8239.2046-.2424.0947-.4337.2273-.5738.3977-.1402.1667-.2102.3826-.2102.6477 0 .3788.1382.6648.4147.858s.6288.2898 1.0568.2898zm6.1421 4.6079v-12h2.0227v1.4432h.1193c.1061-.2121.2557-.4375.4489-.6761.1932-.2425.4545-.4489.7841-.6193.3295-.1743.75-.2614 1.2614-.2614.6742 0 1.2822.1723 1.8238.517.5455.3409.9773.8466 1.2955 1.5171.3219.6666.4829 1.4848.4829 2.4545 0 .9584-.1572 1.7728-.4716 2.4432-.3144.6705-.7424 1.1818-1.2841 1.5341-.5416.3523-1.1553.5284-1.8409.5284-.5 0-.9147-.0833-1.2443-.25-.3295-.1667-.5947-.3674-.7954-.6023-.197-.2386-.3504-.464-.4603-.6761h-.0852v4.6477zm2.017-7.6363c0 .5644.0796 1.0587.2387 1.4829.1629.4243.3958.7557.6988.9943.3069.2349.6781.3523 1.1137.3523.4545 0 .8352-.1212 1.142-.3636.3068-.2462.5379-.5815.6932-1.0057.1591-.428.2386-.9148.2386-1.4602 0-.5417-.0776-1.0228-.2329-1.4432-.1553-.4205-.3864-.75-.6932-.9887-.3068-.2386-.6894-.3579-1.1477-.3579-.4394 0-.8125.1155-1.1193.3466-.3069.231-.5398.5549-.6989.9716-.1553.4166-.233.9072-.233 1.4716zm7.983 4.3636v-8.7273h2.0568v3.5228h.75l2.625-3.5228h2.4773l-3.233 4.2841 3.2671 4.4432h-2.4887l-2.392-3.2898h-1.0057v3.2898zm12.6136.1705c-.875 0-1.6307-.1819-2.267-.5455-.6326-.3674-1.1193-.8864-1.4602-1.5568-.341-.6743-.5114-1.4678-.5114-2.3807 0-.8977.1704-1.6856.5114-2.3636.3447-.6819.8257-1.2122 1.4431-1.5909.6175-.3826 1.3428-.5739 2.1762-.5739.5379 0 1.0454.0871 1.5227.2614.4811.1704.9053.4356 1.2727.7954.3712.3599.6629.8182.875 1.375.2122.553.3182 1.2121.3182 1.9773v.6307h-7.1534v-1.3864h5.1818c-.0038-.3939-.089-.7443-.2557-1.0511-.1666-.3106-.3996-.555-.6988-.733-.2955-.178-.6402-.267-1.0341-.267-.4205 0-.7898.1022-1.108.3068-.3182.2007-.5663.4659-.7443.7954-.1742.3258-.2632.6837-.267 1.0739v1.2102c0 .5076.0928.9432.2784 1.3068.1856.3599.4451.6364.7784.8296.3333.1894.7235.2841 1.1704.2841.2993 0 .5701-.0417.8125-.125.2425-.0871.4527-.214.6307-.3807.1781-.1667.3125-.3731.4034-.6193l1.9205.2159c-.1212.5076-.3523.9507-.6932 1.3295-.3371.375-.7689.6667-1.2955.875-.5265.2046-1.1287.3069-1.8068.3069zm4.8935-7.2103v-1.6875h7.6364v1.6875h-2.8239v7.0398h-1.9886v-7.0398z" fill="#e57b27"/></svg>